<svg width="50" height="50" viewBox="0 0 50 50" fill="none" xmlns="http://www.w3.org/2000/svg">
<path d="M38.7773 0H11.2227C5.02458 0 0 5.02458 0 11.2227V38.7773C0 44.9754 5.02458 50 11.2227 50H38.7773C44.9754 50 50 44.9754 50 38.7773V11.2227C50 5.02458 44.9754 0 38.7773 0Z" fill="white"/>
<path fill-rule="evenodd" clip-rule="evenodd" d="M11.188 33.963V16.0552H19.986C20.9383 16.044 21.8824 16.2328 22.7571 16.6094C23.4319 16.8854 24.0198 17.3384 24.4587 17.9206C24.8976 18.5028 25.1713 19.1926 25.251 19.9173C25.3859 20.7359 25.3145 21.5752 25.0432 22.3593C24.7425 23.1069 24.1832 23.7215 23.4672 24.0912L23.1208 24.2817H23.2767C23.9289 24.5223 24.5045 24.9338 24.9432 25.4731C25.3819 26.0123 25.6677 26.6596 25.7706 27.3472C26.0148 28.5178 25.8625 29.7364 25.3376 30.811C24.9874 31.5662 24.4536 32.2218 23.7851 32.7179C23.1165 33.214 22.3345 33.5349 21.5101 33.6513C20.7548 33.7791 19.9901 33.8428 19.224 33.8418H11.188V33.963ZM15.3272 30.8456H19.1894C19.5733 30.8402 19.9559 30.7996 20.3324 30.7244C20.7568 30.6726 21.1535 30.4868 21.465 30.194C21.7764 29.9012 21.9864 29.5167 22.0643 29.0964C22.1104 28.7631 22.1104 28.4251 22.0643 28.0919C22.0504 27.7027 21.9164 27.3273 21.6807 27.0173C21.4451 26.7072 21.1193 26.4776 20.7481 26.36C20.331 26.212 19.8917 26.1359 19.4492 26.1348H15.3272V30.8456ZM15.3272 23.104H19.224C19.8242 23.1248 20.4199 22.9937 20.9559 22.723C21.1399 22.6297 21.3016 22.4978 21.4301 22.3365C21.5586 22.1751 21.6509 21.9879 21.7006 21.7877C21.7715 21.4333 21.7715 21.0684 21.7006 20.714C21.676 20.3992 21.552 20.1005 21.3466 19.8608C21.1411 19.6211 20.8648 19.4529 20.5576 19.3804C19.9925 19.2303 19.4103 19.1546 18.8257 19.1553H15.3619L15.3272 23.104ZM39.9722 27.936H30.6199V28.4902C30.6631 28.8499 30.7625 29.2005 30.9143 29.5293C31.1073 29.9323 31.3961 30.282 31.7553 30.5476C32.1146 30.8133 32.5335 30.987 32.9753 31.0534C33.4895 31.1594 34.0199 31.1594 34.534 31.0534C34.9027 30.9834 35.2504 30.8299 35.5506 30.6048C35.8508 30.3796 36.0955 30.0888 36.2659 29.7545C36.2803 29.7212 36.3047 29.6933 36.3358 29.6747C36.3669 29.656 36.403 29.6476 36.4391 29.6506H39.8336C39.8336 29.8238 39.8336 29.997 39.7124 30.1528C39.5051 30.799 39.156 31.3908 38.6906 31.8847C37.7573 32.9407 36.4697 33.6184 35.0709 33.7898C33.9572 33.9732 32.8171 33.9141 31.7283 33.6166C30.5979 33.3173 29.5689 32.719 28.7495 31.8847C28.1075 31.1872 27.6753 30.3228 27.5025 29.3908C27.1329 27.7387 27.2046 26.0185 27.7103 24.4029C28.0011 23.3496 28.5939 22.4045 29.4157 21.6843C30.2375 20.9641 31.2522 20.5003 32.3345 20.3503C33.759 20.0693 35.2348 20.2138 36.5777 20.7659C37.799 21.2823 38.7861 22.2323 39.3487 23.4331C39.7206 24.2312 39.9212 25.0985 39.9376 25.979V27.9014C39.9895 27.8667 39.9895 27.9014 39.9722 27.936V27.936ZM36.5084 25.7192V25.3555C36.4511 24.894 36.2693 24.4567 35.9825 24.0906C35.6958 23.7245 35.3148 23.4433 34.8804 23.2772C34.4013 23.0912 33.8852 23.02 33.3737 23.0694C32.8842 23.0779 32.4082 23.2302 32.0047 23.5074C31.6013 23.7845 31.2883 24.1743 31.1049 24.6281C30.9946 24.893 30.902 25.1649 30.8278 25.4421C30.8218 25.5517 30.8218 25.6615 30.8278 25.7711L36.5084 25.7192ZM29.9791 18.8608V16.7826H37.1838V18.8435L29.9791 18.8608Z" fill="black"/>
</svg>
