<svg width="45" height="45" viewBox="0 0 45 45" fill="none" xmlns="http://www.w3.org/2000/svg">
<path d="M31.875 3.75H13.125C7.94733 3.75 3.75 7.94733 3.75 13.125V31.875C3.75 37.0527 7.94733 41.25 13.125 41.25H31.875C37.0527 41.25 41.25 37.0527 41.25 31.875V13.125C41.25 7.94733 37.0527 3.75 31.875 3.75Z" stroke="white" stroke-width="2" stroke-linecap="round" stroke-linejoin="round"/>
<path d="M29.9999 21.3179C30.2313 22.8783 29.9648 24.472 29.2382 25.8723C28.5117 27.2725 27.3621 28.408 25.953 29.1172C24.5439 29.8265 22.947 30.0733 21.3895 29.8227C19.832 29.5721 18.3932 28.8368 17.2778 27.7213C16.1623 26.6058 15.4269 25.167 15.1763 23.6095C14.9257 22.052 15.1726 20.4552 15.8818 19.0461C16.591 17.637 17.7265 16.4874 19.1268 15.7608C20.527 15.0342 22.1207 14.7677 23.6812 14.9991C25.2729 15.2351 26.7465 15.9768 27.8844 17.1147C29.0222 18.2525 29.7639 19.7261 29.9999 21.3179Z" stroke="white" stroke-width="2" stroke-linecap="round" stroke-linejoin="round"/>
<path d="M32.8125 12.1875H32.8312" stroke="white" stroke-width="3" stroke-linecap="round" stroke-linejoin="round"/>
</svg>
